<?xml version="1.0" encoding="UTF-8" standalone="no"?>
<!-- Created with Inkscape (http://www.inkscape.org/) -->

<svg
   version="1.1"
   id="svg18"
   width="666.66669"
   height="666.66669"
   viewBox="0 0 666.66669 666.66669"
   sodipodi:docname="5507734.svg"
   inkscape:version="1.2 (1:1.2+202206011327+fc4e4096c5)"
   xmlns:inkscape="http://www.inkscape.org/namespaces/inkscape"
   xmlns:sodipodi="http://sodipodi.sourceforge.net/DTD/sodipodi-0.dtd"
   xmlns="http://www.w3.org/2000/svg"
   xmlns:svg="http://www.w3.org/2000/svg">
  <defs
     id="defs22" />
  <sodipodi:namedview
     id="namedview20"
     pagecolor="#ffffff"
     bordercolor="#000000"
     borderopacity="0.25"
     inkscape:showpageshadow="2"
     inkscape:pageopacity="0.0"
     inkscape:pagecheckerboard="0"
     inkscape:deskcolor="#d1d1d1"
     showgrid="false"
     inkscape:zoom="0.74642639"
     inkscape:cx="460.86259"
     inkscape:cy="324.88133"
     inkscape:window-width="1310"
     inkscape:window-height="704"
     inkscape:window-x="56"
     inkscape:window-y="27"
     inkscape:window-maximized="1"
     inkscape:current-layer="g26">
    <inkscape:page
       x="0"
       y="0"
       id="page24"
       width="666.66669"
       height="666.66669" />
  </sodipodi:namedview>
  <g
     id="g26"
     inkscape:groupmode="layer"
     inkscape:label="Page 1"
     transform="matrix(1.3333333,0,0,-1.3333333,0,666.66667)">
    <path
       d="m 127.66535,332.68061 3.162,15.613 3.557,-14.822 3.162,2.569 -0.987,-4.545 12.45,-2.372 -10.672,-2.965 v -3.557 l -3.727,0.81 -1.609,-14.447 -2.888,14.215 -4.622,-1.763 2.372,5.533 -15.218,2.371 13.439,1.384 -1.779,4.743 3.36,-2.767"
       style="fill:#ffffff;fill-opacity:1;fill-rule:nonzero;stroke:none;stroke-width:0.1"
       id="path32" />
    <path
       d="m 431.08735,162.64661 1.969,9.718 2.214,-9.226 1.968,1.6 -0.615,-2.829 7.749,-1.477 -6.642,-1.844 v -2.215 l -2.321,0.505 -1.001,-8.993 -1.797,8.847 -2.876,-1.097 1.475,3.444 -9.471,1.476 8.365,0.862 -1.108,2.952 2.091,-1.723"
       style="fill:#ffffff;fill-opacity:1;fill-rule:nonzero;stroke:none;stroke-width:0.1"
       id="path34" />
    <path
       d="m 44.296246,130.94461 1.9691,9.718 2.2137,-9.226 1.968,1.599 -0.6152,-2.829 7.75,-1.477 -6.6426,-1.845 v -2.213 l -2.3203,0.503 -1.0012,-8.992 -1.7977,8.848 -2.8761,-1.098 1.4757,3.445 -9.4718,1.475 8.3652,0.862 -1.1074,2.952 2.0906,-1.722"
       style="fill:#ffffff;fill-opacity:1;fill-rule:nonzero;stroke:none;stroke-width:0.1"
       id="path36" />
    <path
       d="m 65.045446,93.93961 1.5196,7.503 1.7097,-7.123 1.5188,1.234 -0.4746,-2.183 5.9836,-1.14 -5.1289,-1.425 v -1.709 l -1.7911,0.389 -0.7726,-6.942 -1.3875,6.831 -2.2219,-0.848 1.1398,2.659 -7.3125,1.14 6.4579,0.665 -0.8543,2.279 1.614,-1.33"
       style="fill:#ffffff;fill-opacity:1;fill-rule:nonzero;stroke:none;stroke-width:0.1"
       id="path38" />
    <path
       d="m 318.67235,378.71361 1.52,7.502 1.709,-7.122 1.519,1.234 -0.474,-2.184 5.982,-1.139 -5.128,-1.425 v -1.71 l -1.791,0.39 -0.773,-6.942 -1.388,6.83 -2.221,-0.848 1.14,2.66 -7.313,1.139 6.458,0.665 -0.855,2.279 1.615,-1.329"
       style="fill:#ffffff;fill-opacity:1;fill-rule:nonzero;stroke:none;stroke-width:0.1"
       id="path40" />
    <path
       d="m 192.36135,352.90661 1.519,7.502 1.709,-7.122 1.52,1.235 -0.475,-2.185 5.983,-1.14 -5.128,-1.424 v -1.709 l -1.792,0.389 -0.773,-6.942 -1.388,6.83 -2.22,-0.847 1.139,2.659 -7.312,1.14 6.458,0.664 -0.855,2.279 1.615,-1.329"
       style="fill:#ffffff;fill-opacity:1;fill-rule:nonzero;stroke:none;stroke-width:0.1"
       id="path42" />
    <path
       d="m 438.98335,207.53161 1.519,7.502 1.71,-7.122 1.52,1.234 -0.476,-2.184 5.983,-1.14 -5.127,-1.425 v -1.709 l -1.792,0.39 -0.773,-6.943 -1.388,6.83 -2.221,-0.847 1.139,2.659 -7.312,1.14 6.458,0.665 -0.855,2.279 1.615,-1.329"
       style="fill:#ffffff;fill-opacity:1;fill-rule:nonzero;stroke:none;stroke-width:0.1"
       id="path44" />
    <path
       d="m 240.83735,328.35861 c -0.283,0 -0.564,0.125 -0.755,0.37 -3.26,4.186 -17.187,22.719 -10.992,26.286 0.88,0.507 1.747,0.728 2.589,0.728 4.329,0 8.024,-5.843 9.656,-8.889 0.182,-0.339 0.513,-0.506 0.844,-0.506 0.348,0 0.696,0.185 0.872,0.549 1.534,3.183 5.077,9.374 9.417,9.374 1.067,0 2.18,-0.373 3.325,-1.256 6.588,-5.082 -10.397,-22.536 -14.278,-26.376 -0.19,-0.188 -0.435,-0.28 -0.678,-0.28"
       style="fill:#99dde9;fill-opacity:1;fill-rule:nonzero;stroke:none;stroke-width:0.1"
       id="path46" />
    <path
       d="m 66.843946,235.15761 c -0.1993,0 -0.4012,0.062 -0.5758,0.193 -4.2395,3.191 -22.5176,17.451 -17.4668,22.51 1.1031,1.105 2.3519,1.551 3.648,1.551 3.8766,0 8.1797,-3.985 10.3012,-6.236 0.1961,-0.208 0.4461,-0.302 0.6926,-0.302 0.4355,0 0.8601,0.296 0.9527,0.791 0.7106,3.79 2.7965,11.665 7.8574,11.665 0.7149,0 1.4883,-0.157 2.3262,-0.505 7.6856,-3.188 -4.1601,-24.468 -6.9043,-29.187 -0.1808,-0.311 -0.5023,-0.48 -0.8312,-0.48"
       style="fill:#99dde9;fill-opacity:1;fill-rule:nonzero;stroke:none;stroke-width:0.1"
       id="path48" />
    <path
       d="m 413.33935,71.16181 c -0.485,0 -0.906,0.3648 -0.952,0.8707 -0.482,5.2441 -2.178,28.0651 4.781,28.0651 0.052,0 0.103,-0.001 0.155,-0.004 6.225,-0.297 6.225,-9.365 5.903,-13.48 -0.047,-0.595 0.433,-1.036 0.96,-1.036 0.17,0 0.344,0.046 0.508,0.146 2.27,1.397 6.427,3.618 9.901,3.618 2.261,0 4.233,-0.941 5.206,-3.663 2.803,-7.834 -20.917,-13.3579 -26.256,-14.495 -0.069,-0.0148 -0.138,-0.0218 -0.206,-0.0218"
       style="fill:#99dde9;fill-opacity:1;fill-rule:nonzero;stroke:none;stroke-width:0.1"
       id="path50" />
    <path
       d="m 154.55235,376.65161 c -0.141,0 -0.285,0.031 -0.422,0.098 -4.767,2.329 -25.418,12.865 -21.418,18.79 1.143,1.692 2.744,2.325 4.498,2.325 3.596,0 7.835,-2.659 10.087,-4.281 0.175,-0.126 0.368,-0.183 0.557,-0.183 0.501,0 0.968,0.402 0.966,0.976 -0.023,4.102 0.607,13.035 6.507,13.035 0.43,0 0.888,-0.047 1.375,-0.147 8.152,-1.674 0.555,-24.813 -1.246,-29.966 -0.14,-0.402 -0.511,-0.647 -0.904,-0.647"
       style="fill:#99dde9;fill-opacity:1;fill-rule:nonzero;stroke:none;stroke-width:0.1"
       id="path52" />
    <path
       d="m 278.86235,19.17861 c -75.713,0 -137.09,3.7742 -137.09,8.4281 0,3.1109 13.801,7.3828 54.374,9.8769 6.99,-7.1941 12.704,-10.014 17.463,-10.014 0.93,0 1.824,0.1082 2.683,0.3121 v 0 0 c 1.861,0.4398 3.561,1.3398 5.12,2.5601 1.305,1.0239 1.371,4.1047 0.778,8.3469 11.111,0.3719 23.601,0.634 37.599,0.7551 0.054,-0.6051 0.135,-1.1652 0.243,-1.6723 0.809,-3.7707 2.885,-5.832 6.018,-5.832 3.367,0 7.954,2.3812 13.497,7.5801 0.106,0 0.213,0 0.319,0 0.117,-6.4258 1.065,-7.97 15.376,-11.718 16.601,-4.35 70.55,-4.9398 80.43,-5.5301 0.705,-0.0429 1.377,-0.0648 2.019,-0.0648 7.111,0 10.483,2.7578 12.346,11.5008 16.289,-2.036 25.914,-4.27 25.914,-6.1008 0,-4.6539 -61.377,-8.4281 -137.089,-8.4281"
       style="fill:#41bbca;fill-opacity:1;fill-rule:nonzero;stroke:none;stroke-width:0.1"
       id="path56" />
    <path
       d="m 126.43335,268.71161 c -0.261,0.04 -0.521,-0.02 -0.721,-0.15 -0.21,-0.05 -0.55,-0.1 -0.989,-0.13 -5.721,-0.47 -29.390804,0.93 -44.730604,13.44 -11.0703,9.02 -15.7805,21.91 -14,38.31 0.0605,0.55 -0.3399,1.05 -0.8895,1.11 -0.55,0.06 -1.0402,-0.34 -1.1007,-0.89 -4.4891,-41.46 32.1101,-51.04 48.050804,-53.23 4.769,-0.66 8.43,-0.77 10.189,-0.78 h 0.351 c 0.609,0 1.14,0.01 1.6,0.03 2.729,0.1 2.95,0.51 3.059,1.14 0.091,0.54 -0.279,1.06 -0.819,1.15"
       style="fill:#ffffff;fill-opacity:1;fill-rule:nonzero;stroke:none;stroke-width:0.1"
       id="path58" />
    <path
       d="m 434.87235,374.67161 c -4.029,-16.48 -8.059,-41.38 -25.269,-89.73 -8.09,-22.7 -15.771,-66.41 -21.641,-106.38 -5.26,-35.78 -9.069,-68.57 -10.42,-80.63 -0.349,-3.16 -0.54,-4.9 -0.54,-4.9 l -35.519,5.86 c 0,0 0.509,2.91 1.38,7.95 4.07,23.38 16.089,92.5 22.419,128.66 7.691,43.95 22.34,54.57 26.371,75.81 0.5,2.61 1.129,6.03 1.86,10.01 5.21,28.39 15.359,85.58 15.359,85.58 0,0 11.721,13.19 24.17,7.69 12.45,-5.49 5.861,-23.44 1.83,-39.92"
       style="fill:#2fb4c5;fill-opacity:1;fill-rule:nonzero;stroke:none;stroke-width:0.1"
       id="path60" />
    <path
       d="m 379.54935,115.19361 c -7.588,0.762 -20.78,2.121 -34.61,3.581 0.556,3.196 1.166,6.698 1.816,10.435 12.239,-4.985 24.215,-9.935 32.838,-13.646 -0.015,-0.124 -0.029,-0.246 -0.044,-0.37 m 5.931,45.974 c -8.063,4.84 -19.812,9.592 -30.827,13.41 3.868,22.21 7.812,44.833 10.629,60.924 7.691,43.95 22.34,54.57 26.371,75.81 0.5,2.61 1.129,6.03 1.86,10.01 l 4.189,0.46 c 0,0 4.101,-9.02 0.821,-20.09 -3.281,-11.07 -27.061,-70.11 -27.47,-96.349 -0.271,-17.491 10.019,-24.241 16.909,-26.781 -0.868,-5.907 -1.697,-11.73 -2.482,-17.394"
       style="fill:#239bb6;fill-opacity:1;fill-rule:nonzero;stroke:none;stroke-width:0.1"
       id="path62" />
    <path
       d="m 363.63435,418.93861 c -0.451,0.151 -4.06,1.804 -4.21,-1.053 -0.15,-2.857 2.405,-4.812 1.504,-5.564 -0.902,-0.752 -5.113,-0.451 -4.061,-3.458 1.053,-3.008 3.459,-9.173 2.256,-10.978 -1.203,-1.804 -6.617,-3.157 -6.467,-6.767 0.151,-3.608 4.061,-6.014 2.708,-7.518 -1.354,-1.504 -6.166,-1.053 -5.714,-2.256 0.451,-1.203 1.203,-2.105 1.203,-2.105 0,0 -4.362,-0.451 -2.858,-1.805 1.504,-1.353 3.159,-4.511 2.707,-4.812 -0.451,-0.301 -5.414,0.602 -5.564,-0.752 -0.15,-1.353 2.857,-5.263 2.857,-6.165 0,-0.902 -4.812,-1.504 -4.812,-3.459 0,-1.954 2.406,-3.759 2.256,-4.511 -0.151,-0.752 -5.263,-0.602 -5.714,-2.406 -0.451,-1.804 4.059,-4.661 3.759,-5.714 -0.301,-1.053 -3.759,-3.609 -4.06,-5.714 -0.301,-2.106 5.564,-7.669 4.661,-8.722 -0.902,-1.053 -6.165,2.857 -6.466,-0.602 -0.3,-3.458 4.662,-6.466 3.911,-7.819 -0.752,-1.354 -6.467,-3.76 -5.114,-6.015 1.354,-2.256 29.925,-13.985 29.925,-13.985 l 15.789,8.27 23.008,81.805 -22.557,13.533 -18.947,8.572"
       style="fill:#ffffff;fill-opacity:1;fill-rule:nonzero;stroke:none;stroke-width:0.1"
       id="path64" />
    <path
       d="m 431.15335,397.58561 c 0,0 -19.098,10.526 -21.353,11.429 -2.256,0.901 -48.722,11.728 -48.422,10.375 0.301,-1.353 38.797,-21.804 40.301,-21.804 1.504,0 31.278,-0.752 29.474,0"
       style="fill:#76d2dd;fill-opacity:1;fill-rule:nonzero;stroke:none;stroke-width:0.1"
       id="path66" />
    <path
       d="m 403.63435,398.93861 c 0,0 -5.263,-1.955 -4.661,-3.308 0.601,-1.354 2.405,-3.76 1.503,-5.264 -0.902,-1.503 -3.759,-1.352 -3.909,-3.759 -0.151,-2.406 2.255,-3.609 1.504,-4.962 -0.752,-1.353 -4.963,-0.602 -5.264,-3.609 -0.301,-3.008 2.707,-3.759 1.654,-5.564 -1.053,-1.805 -4.811,-1.504 -5.563,-3.609 -0.752,-2.106 2.555,-3.008 1.803,-5.564 -0.751,-2.556 -6.165,-2.106 -6.315,-5.714 -0.15,-3.609 2.857,-5.715 1.955,-7.068 -0.902,-1.353 -5.564,0.151 -5.714,-2.556 -0.15,-2.707 2.857,-7.218 2.105,-8.271 -0.752,-1.053 -5.263,-0.15 -6.767,-4.962 -1.504,-4.812 2.707,-8.421 1.955,-9.925 -0.752,-1.504 -7.218,-2.106 -6.467,-4.662 0.752,-2.556 4.813,-1.203 4.061,-3.458 -0.752,-2.256 -9.173,-9.925 -9.173,-9.925 0,0 34.135,0.601 37.744,-0.15 3.61,-0.752 4.963,0 5.715,3.608 0.751,3.609 19.698,66.917 20.901,73.835 1.204,6.917 4.061,12.03 0.452,13.534 -3.609,1.504 -27.519,1.353 -27.519,1.353"
       style="fill:#96dce4;fill-opacity:1;fill-rule:nonzero;stroke:none;stroke-width:0.1"
       id="path68" />
    <path
       d="m 360.39535,317.95361 -0.137,0.005 c -1.966,0.131 -3.05,2.834 -3.611,5.056 -0.938,-1.172 -2.258,-2.429 -3.712,-2.617 -0.681,-0.091 -1.7,0.016 -2.659,1.028 -3.164,3.34 -0.139,9.179 -0.009,9.426 0.259,0.488 0.863,0.673 1.349,0.417 0.49,-0.257 0.677,-0.861 0.42,-1.35 -0.025,-0.048 -2.487,-4.818 -0.309,-7.117 0.406,-0.429 0.724,-0.452 0.95,-0.421 1.296,0.167 2.993,2.546 3.612,3.673 0.207,0.377 0.631,0.58 1.058,0.502 0.424,-0.078 0.75,-0.418 0.809,-0.844 0.409,-2.911 1.495,-5.708 2.235,-5.758 h 0.014 c 0.637,0 2.071,2.879 2.855,6.294 0.124,0.538 0.662,0.87 1.198,0.751 0.538,-0.124 0.874,-0.66 0.751,-1.199 -0.546,-2.38 -2.095,-7.845 -4.814,-7.846"
       style="fill:#213e58;fill-opacity:1;fill-rule:nonzero;stroke:none;stroke-width:0.1"
       id="path70" />
    <path
       d="m 368.19835,331.90261 c 0,-1.512 -1.022,-2.738 -2.282,-2.738 -1.26,0 -2.282,1.226 -2.282,2.738 0,1.512 1.022,2.738 2.282,2.738 1.26,0 2.282,-1.226 2.282,-2.738"
       style="fill:#213e58;fill-opacity:1;fill-rule:nonzero;stroke:none;stroke-width:0.1"
       id="path72" />
    <path
       d="m 356.52535,337.36361 c 0,-1.512 -1.022,-2.738 -2.282,-2.738 -1.26,0 -2.282,1.226 -2.282,2.738 0,1.512 1.022,2.738 2.282,2.738 1.26,0 2.282,-1.226 2.282,-2.738"
       style="fill:#213e58;fill-opacity:1;fill-rule:nonzero;stroke:none;stroke-width:0.1"
       id="path74" />
    <path
       d="m 402.88435,312.87461 -0.044,0.002 c -22.889,1.971 -23.31,2.392 -23.469,2.551 -0.195,0.195 -0.195,0.512 0,0.707 0.166,0.165 0.416,0.191 0.61,0.076 1.095,-0.36 14.282,-1.592 22.945,-2.338 0.275,-0.023 0.479,-0.265 0.455,-0.541 -0.022,-0.26 -0.241,-0.457 -0.497,-0.457"
       style="fill:#2fb4c5;fill-opacity:1;fill-rule:nonzero;stroke:none;stroke-width:0.1"
       id="path76" />
    <path
       d="m 405.73935,324.15261 c -0.138,0 -0.264,0.057 -0.354,0.148 -1.294,0.534 -14.265,2.399 -22.268,3.466 -0.273,0.036 -0.465,0.288 -0.429,0.561 0.037,0.275 0.291,0.464 0.562,0.43 22.989,-3.065 22.989,-3.547 22.989,-4.105 0,-0.276 -0.223,-0.5 -0.5,-0.5"
       style="fill:#2fb4c5;fill-opacity:1;fill-rule:nonzero;stroke:none;stroke-width:0.1"
       id="path78" />
    <path
       d="m 408.59835,338.88961 -0.066,0.004 -20.902,2.707 c -0.273,0.035 -0.467,0.286 -0.432,0.56 0.037,0.274 0.283,0.462 0.561,0.432 l 20.902,-2.707 c 0.274,-0.035 0.467,-0.286 0.432,-0.56 -0.033,-0.252 -0.248,-0.436 -0.495,-0.436"
       style="fill:#2fb4c5;fill-opacity:1;fill-rule:nonzero;stroke:none;stroke-width:0.1"
       id="path80" />
    <path
       d="m 411.45535,347.61161 -0.082,0.007 -20.15,3.308 c -0.273,0.044 -0.457,0.302 -0.412,0.574 0.045,0.273 0.302,0.461 0.574,0.412 l 20.15,-3.308 c 0.273,-0.044 0.457,-0.302 0.412,-0.574 -0.04,-0.245 -0.251,-0.419 -0.492,-0.419"
       style="fill:#2fb4c5;fill-opacity:1;fill-rule:nonzero;stroke:none;stroke-width:0.1"
       id="path82" />
    <path
       d="m 416.41635,355.88161 -0.112,0.013 -22.857,5.263 c -0.268,0.062 -0.436,0.331 -0.375,0.6 0.063,0.269 0.329,0.436 0.6,0.375 l 22.857,-5.263 c 0.268,-0.062 0.436,-0.331 0.375,-0.6 -0.054,-0.231 -0.259,-0.388 -0.488,-0.388"
       style="fill:#2fb4c5;fill-opacity:1;fill-rule:nonzero;stroke:none;stroke-width:0.1"
       id="path84" />
    <path
       d="m 418.97335,365.95761 -0.12,0.014 -22.406,5.564 c -0.269,0.067 -0.432,0.338 -0.366,0.606 0.067,0.267 0.336,0.43 0.606,0.365 l 22.406,-5.564 c 0.269,-0.066 0.432,-0.338 0.365,-0.606 -0.056,-0.227 -0.261,-0.379 -0.485,-0.379"
       style="fill:#2fb4c5;fill-opacity:1;fill-rule:nonzero;stroke:none;stroke-width:0.1"
       id="path86" />
    <path
       d="m 422.73435,376.93461 -0.087,0.008 -21.504,3.759 c -0.273,0.048 -0.454,0.307 -0.406,0.579 0.046,0.273 0.31,0.45 0.578,0.406 l 21.504,-3.759 c 0.272,-0.048 0.454,-0.307 0.406,-0.579 -0.042,-0.243 -0.253,-0.414 -0.491,-0.414"
       style="fill:#2fb4c5;fill-opacity:1;fill-rule:nonzero;stroke:none;stroke-width:0.1"
       id="path88" />
    <path
       d="m 425.80335,387.25161 c -6.19,0.79 -15.311,2.05 -19.91,2.92 -1.141,0.21 -2,0.4 -2.471,0.56 -0.14,0.04 -0.25,0.08 -0.319,0.12 -0.141,0.16 -0.391,0.22 -0.59,0.11 -0.25,-0.12 -0.351,-0.42 -0.231,-0.67 0.04,-0.09 0.111,-0.23 0.89,-0.48 0.5,-0.15 1.29,-0.35 2.551,-0.61 3.05,-0.61 8.849,-1.53 19.949,-2.94 h 0.07 c 0.25,0 0.46,0.18 0.491,0.43 0.04,0.28 -0.161,0.53 -0.43,0.56"
       style="fill:#2fb4c5;fill-opacity:1;fill-rule:nonzero;stroke:none;stroke-width:0.1"
       id="path90" />
    <path
       d="m 331.70235,172.57161 c -17.45,-72.79 -23.389,-96.5501 -40.469,-119.5802 -17.09,-23.0199 -28.97,-25.6199 -31.201,-15.2199 -2.229,10.3903 7.561,42.4102 2.43,52.1601 -5.239,9.99 -7.26,3.17 -19.88,-0.17 -4.689,-1.244 -9.377,-0.643 -13.551,-0.043 -7.068,1.017 -12.664,2.034 -14.298,-5.907 -2.6,-12.6202 11.88,-49.3901 6.679,-53.4698 -1.559,-1.2203 -3.259,-2.1203 -5.12,-2.5601 -8.46,-2.0102 -20.239,5.3101 -37.59,33.0097 -21.16,33.7902 -47.899,102.8702 -55.7,158.9402 -7.8,56.08 13.74,82.81 41.96,86.53 22.03,2.9 35.011,-8.23 49.881,-11.83 4.189,-1.03 8.52,-1.45 13.25,-0.8 21.54,2.97 20.43,29.71 62.39,19.68 41.969,-10.02 58.679,-67.96 41.219,-140.74"
       style="fill:#ffffff;fill-opacity:1;fill-rule:nonzero;stroke:none;stroke-width:0.1"
       id="path92" />
    <path
       d="m 216.29235,27.78171 c -8.46,-2.0102 -20.239,5.3101 -37.59,33.0097 -21.16,33.7902 -47.899,102.8702 -55.7,158.9402 -7.8,56.08 13.74,82.81 41.96,86.53 22.03,2.9 35.011,-8.23 49.881,-11.83 -17.79,0.23 -56.369,13.46 -72.018,-22.207 -25.107,-57.219 10.507,-136.625 23.938,-151.804 12.239,-13.83 12.399,-48.3491 49.529,-92.6389"
       style="fill:#efefed;fill-opacity:1;fill-rule:nonzero;stroke:none;stroke-width:0.1"
       id="path94" />
    <path
       d="m 220.93135,94.74261 c -9.455,0 -17.428,1.544 -15.931,10.155 1.065,6.12 5.108,7.537 11.156,7.537 2.608,0 5.588,-0.263 8.863,-0.527 3.275,-0.263 6.844,-0.526 10.63,-0.526 2.917,0 5.961,0.156 9.098,0.588 5.776,0.797 11.707,2.092 15.767,2.092 4.475,0 6.68,-1.572 3.908,-7.115 -1.256,-2.512 -14.2,-11.721 -27.629,-11.721 -4.818,0 -10.572,-0.483 -15.862,-0.483"
       style="fill:#f7f7f6;fill-opacity:1;fill-rule:nonzero;stroke:none;stroke-width:0.1"
       id="path96" />
    <path
       d="m 300.74835,227.96261 c -8.681,0 -15.718,6.68 -15.718,14.921 0,8.241 7.037,14.921 15.718,14.921 8.681,0 15.719,-6.68 15.719,-14.921 0,-8.241 -7.038,-14.921 -15.719,-14.921"
       style="fill:#fcdae0;fill-opacity:1;fill-rule:nonzero;stroke:none;stroke-width:0.1"
       id="path98" />
    <path
       d="m 166.51735,214.60561 c -3.828,10.833 -9.249,14.797 -21.857,14.797 -1.508,0 -3.119,-0.057 -4.842,-0.166 2.098,5.897 7.974,10.143 14.894,10.143 8.682,0 15.719,-6.68 15.719,-14.921 0,-3.776 -1.477,-7.225 -3.914,-9.853"
       style="fill:#fcdae0;fill-opacity:1;fill-rule:nonzero;stroke:none;stroke-width:0.1"
       id="path100" />
    <path
       d="m 265.24235,253.90961 h -0.158 c -0.55,0.041 -0.964,0.521 -0.922,1.072 0.056,0.754 1.509,18.454 9.957,17.881 8.204,-0.562 11.945,-14.098 12.1,-14.674 0.144,-0.533 -0.172,-1.082 -0.705,-1.225 -0.531,-0.148 -1.082,0.172 -1.226,0.704 -0.035,0.127 -3.52,12.735 -10.304,13.2 -5.444,0.38 -7.486,-11.449 -7.828,-16.035 -0.037,-0.498 -0.432,-0.883 -0.914,-0.923"
       style="fill:#213e58;fill-opacity:1;fill-rule:nonzero;stroke:none;stroke-width:0.1"
       id="path102" />
    <path
       d="m 181.72935,247.05061 0.155,0.025 c 0.536,0.13 0.866,0.671 0.735,1.208 -0.178,0.735 -4.501,17.961 -12.742,16.017 -8.002,-1.893 -9.483,-15.858 -9.543,-16.452 -0.054,-0.549 0.347,-1.039 0.896,-1.094 0.549,-0.059 1.04,0.347 1.094,0.896 0.014,0.13 1.396,13.138 8.013,14.704 5.309,1.263 9.253,-10.075 10.339,-14.543 0.117,-0.485 0.57,-0.801 1.053,-0.761"
       style="fill:#213e58;fill-opacity:1;fill-rule:nonzero;stroke:none;stroke-width:0.1"
       id="path104" />
    <path
       d="m 269.81035,209.43261 c -7.42,-12.389 -22.739,-23.099 -41.4,-24.739 -22.35,-1.96 -35.46,8.079 -41.509,20.71 -2.551,5.33 -3.851,11.109 -4.051,16.649 -0.68,18.681 11.08,27.02 33.94,14.58 18,-9.799 25.741,23.69 48.75,6.38 11.23,-8.449 11.34,-21.779 4.27,-33.58"
       style="fill:#f89d88;fill-opacity:1;fill-rule:nonzero;stroke:none;stroke-width:0.1"
       id="path106" />
    <path
       d="m 277.43135,229.90261 c 0,-4.907 -4.386,-8.885 -9.795,-8.885 -5.41,0 -9.796,3.978 -9.796,8.885 0,4.907 4.386,8.884 9.796,8.884 5.409,0 9.795,-3.977 9.795,-8.884"
       style="fill:#87d6c7;fill-opacity:1;fill-rule:nonzero;stroke:none;stroke-width:0.1"
       id="path108" />
    <path
       d="m 281.48935,248.59261 c 0,-2.327 -1.734,-4.214 -3.873,-4.214 -2.138,0 -3.873,1.887 -3.873,4.214 0,2.328 1.735,4.215 3.873,4.215 2.139,0 3.873,-1.887 3.873,-4.215"
       style="fill:#87d6c7;fill-opacity:1;fill-rule:nonzero;stroke:none;stroke-width:0.1"
       id="path110" />
    <path
       d="m 210.64235,214.53561 c 0,0 5.239,9.568 20.729,9.568 15.492,0 23.009,-10.707 22.782,-16.857 -0.229,-6.152 -17.086,-16.63 -28.476,-9.34 -11.391,7.289 -15.035,16.629 -15.035,16.629"
       style="fill:#f2596c;fill-opacity:1;fill-rule:nonzero;stroke:none;stroke-width:0.1"
       id="path112" />
    <path
       d="m 269.81035,209.43261 c -7.42,-12.389 -22.739,-23.099 -41.4,-24.739 -22.35,-1.96 -35.46,8.079 -41.509,20.71 1.46,2.489 9.079,-5.381 12.119,-3.851 3.19,1.59 -7.29,15.031 5.011,18.22 12.309,3.191 17.089,-18.22 22.559,-13.89 5.46,4.321 -0.46,9.34 7.061,13.21 7.519,3.871 11.389,-17.309 17.539,-12.53 5.56,4.32 13.73,12.2 18.62,2.87"
       style="fill:#87d6c7;fill-opacity:1;fill-rule:nonzero;stroke:none;stroke-width:0.1"
       id="path114" />
    <path
       d="m 389.77335,202.26161 c -3.55,-1.11 -7.531,-1 -11.601,0.4 -3.869,1.33 -6.01,3.4 -6.989,5.59 -0.84,1.85 -0.84,3.78 -0.351,5.41 0.281,0.91 0.721,1.77 1.311,2.5 1.04,1.28 2.51,2.16 4.25,2.16 0.45,0 0.92,-0.06 1.399,-0.18 3.83,-1.01 9.051,-4.18 11.16,-9.82 0.72,-1.91 0.991,-3.94 0.821,-6.06 z m 15.16,26.19 c -0.28,5.32 -2.29,10.69 -5.78,15.77 -3.64,5.31 -8.911,10.32 -15.54,14.67 -0.43,0.28 -0.871,0.56 -1.31,0.84 -3,1.88 -6.2,3.59 -9.561,5.11 -12.25,5.57 -26.71,8.76 -41.879,9.17 -0.93,0.03 -1.871,0.05 -2.81,0.05 h -0.011 c -0.55,0 -0.989,-0.45 -1,-1 0,-0.55 0.45,-1 1,-1 1.2,-0.01 2.391,-0.03 3.561,-0.07 15.55,-0.51 29.309,-3.91 40.5,-9.03 3.95,-1.82 7.58,-3.84 10.859,-6.03 6.891,-4.61 12.21,-9.95 15.62,-15.53 2.62,-4.28 4.12,-8.71 4.351,-13.06 0.58,-10.71 -2.361,-19.08 -8.29,-23.56 -0.891,-0.67 -1.84,-1.25 -2.83,-1.71 0,0.19 0.009,0.37 0.009,0.55 -0.019,2.13 -0.45,3.94 -1,5.4 -2.37,6.36 -8.229,9.93 -12.519,11.05 -1.981,0.52 -3.96,0.18 -5.61,-0.83 -1.72,-1.03 -3.1,-2.77 -3.781,-5.01 -0.91,-3.01 -0.389,-6.52 2.13,-9.38 1.46,-1.65 3.58,-3.09 6.481,-4.08 4.09,-1.4 8.2,-1.6 11.939,-0.65 -0.59,-2.81 -1.909,-5.74 -3.939,-8.71 -1.821,-2.66 -4.47,-4.76 -7.521,-6.41 -5.769,-3.12 -13.019,-4.65 -19.04,-5.4 -1.189,-0.15 -2.359,-0.27 -3.5,-0.37 -6.29,-0.55 -11.72,-0.41 -14.79,-0.15 -1.35,0.1 -2.239,0.23 -2.569,0.33 -0.311,0.22 -0.74,0.25 -1.09,0.04 -0.471,-0.29 -0.62,-0.9 -0.341,-1.37 0.221,-0.37 0.591,-0.99 7.33,-1.19 0.591,-0.02 1.45,-0.03 2.511,-0.03 0.39,0 0.819,0 1.269,0.01 2,0.02 4.521,0.11 7.331,0.34 7.53,0.62 17.139,2.24 24.389,6.34 3.101,1.75 5.771,3.96 7.67,6.73 1.79,2.63 2.971,5.07 3.691,7.31 0.36,1.13 0.61,2.2 0.759,3.23 1.5,0.59 2.92,1.38 4.231,2.37 6.469,4.89 9.7,13.86 9.08,25.26"
       style="fill:#ffffff;fill-opacity:1;fill-rule:nonzero;stroke:none;stroke-width:0.1"
       id="path116" />
    <path
       d="m 170.27335,82.81161 c -6.061,-1.92 -26.311,-5.0401 -26.361,-5.0498 -6.889,-1.2903 -27.759,-5.0403 -37.38,-5.0403 -11.619704,0 -14.809104,4.5602 -16.399004,14.3501 -1.6004,9.8 -3.6504,28.02 -3.6504,28.02 l 6.3797,1.37 -6.8297,31.44 -3.8703,20.04 -7.5195,-0.68 c 0,0 -4.3301,14.12 -4.3301,30.3 0,16.17 5.9199,21.19 28.25,25.51 l -0.4199,4.63 -0.4903,5.4 32.690504,5.29 1.39,-6.34 0.769,-3.49 c 22.591,2.61 29.75,-0.38 34.631,-15.8 4.88,-15.419 5.02,-30.19 5.02,-30.19 l -7.38,-1.62 2.36,-20.28 2.97,-32.039 6.5,0.619 c 0,0 3.54,-17.99 4.979,-27.81 1.431,-9.82 -0.229,-15.13 -11.309,-18.63"
       style="fill:#abe2db;fill-opacity:1;fill-rule:nonzero;stroke:none;stroke-width:0.1"
       id="path118" />
    <path
       d="m 172.31335,89.66161 c -5.34,-2.37 -24.7,-6.13 -48.62,-9.29 -23.910404,-3.1598 -24.310004,-1.1899 -26.481104,3.36 -2.1695,4.54 -5.1394,29.45 -5.1394,29.45 l 5.1394,1.77 -11.659,57.91 c 0,0 -8.3007,-1.38 -8.3007,-0.79 0,0 -1.9297,8.811 -2.6797,18.24 l 4.2597,2.31 22.810604,1.04 20.4702,0.94 42.03,14.7 c 3,-10.79 3.429,-23.79 3.429,-23.79 l -7.32,-1.98 6.53,-60.28 6.121,0.99 c 0,0 0.41,-2.5 0.98,-5.92 0.75,-4.5 1.8,-10.59 2.579,-14.63 1.381,-7.12 1.19,-11.66 -4.149,-14.03"
       style="fill:#5ac7b1;fill-opacity:1;fill-rule:nonzero;stroke:none;stroke-width:0.1"
       id="path120" />
    <path
       d="m 91.481046,173.04761 c -0.4914,0 -0.9199,0.361 -0.9895,0.861 -0.0758,0.547 0.3051,1.053 0.852,1.129 l 63.636804,8.893 c 0.544,0.083 1.052,-0.304 1.129,-0.851 0.076,-0.547 -0.305,-1.053 -0.852,-1.129 l -63.636904,-8.894 -0.1394,-0.009"
       style="fill:#30b897;fill-opacity:1;fill-rule:nonzero;stroke:none;stroke-width:0.1"
       id="path122" />
    <path
       d="m 99.979046,112.96661 c -0.491,0 -0.9199,0.362 -0.989,0.862 -0.0762,0.547 0.3046,1.053 0.8515,1.129 l 63.636804,8.893 c 0.548,0.081 1.052,-0.304 1.129,-0.851 0.076,-0.547 -0.305,-1.053 -0.852,-1.129 l -63.6364,-8.894 -0.139904,-0.01"
       style="fill:#30b897;fill-opacity:1;fill-rule:nonzero;stroke:none;stroke-width:0.1"
       id="path124" />
    <path
       d="m 106.59435,78.82661 c -7.280904,0 -7.940304,1.884 -9.382104,4.905 -2.1695,4.54 -5.1394,29.45 -5.1394,29.45 l 5.1394,1.77 -11.659,57.91 c 0,0 -5.6343,-0.937 -7.6191,-0.937 -0.4242,0 -0.6816,0.043 -0.6816,0.147 0,0 -1.9297,8.811 -2.6797,18.24 l 4.2597,2.31 22.810604,1.04 c 1.5212,-4.098 4.5472,-9.72 10.0242,-15.784 l -20.323804,-2.84 c -0.5469,-0.076 -0.9278,-0.582 -0.852,-1.129 0.0696,-0.5 0.4981,-0.861 0.9895,-0.861 l 0.1394,0.009 21.719904,3.036 c 3.802,-3.914 8.639,-7.965 14.753,-11.871 16.652,-10.636 2.4,-33.818 10.578,-43.838 l -38.829804,-5.426 c -0.5469,-0.076 -0.9277,-0.582 -0.8515,-1.129 0.0691,-0.5 0.498,-0.862 0.989,-0.862 l 0.139904,0.01 40.4174,5.649 c 2.607,-1.903 6.596,-3.012 12.628,-3.012 5.23,0 11.989,0.833 20.719,2.708 0.75,-4.5 1.8,-10.59 2.579,-14.63 0.445,-2.295 0.727,-4.321 0.726,-6.094 -0.003,-3.727 -1.256,-6.33 -4.875,-7.936 -5.34,-2.37 -24.7,-6.13 -48.62,-9.29 -8.034,-1.0618 -13.415,-1.545 -17.099,-1.545 m 42.576,18.59 c -2.565,0 -4.644,-1.549 -4.644,-3.458 0,-1.91 2.079,-3.459 4.644,-3.459 2.565,0 4.645,1.549 4.645,3.459 0,1.909 -2.08,3.458 -4.645,3.458 m 16.184,12.601 c -4.697,0 -7.399,-4.764 -7.99,-9.527 -0.591,-4.763 0.93,-9.526 4.68,-9.526 0.062,0 0.125,0.001 0.189,0.003 9.486,0.396 16.403,15.811 5.138,18.776 -0.709,0.186 -1.381,0.274 -2.017,0.274"
       style="fill:#47c0a5;fill-opacity:1;fill-rule:nonzero;stroke:none;stroke-width:0.1"
       id="path126" />
    <path
       d="m 91.481046,173.04761 c -0.4914,0 -0.9199,0.361 -0.9895,0.861 -0.0758,0.547 0.3051,1.053 0.852,1.129 l 20.323804,2.84 c 0.535,-0.591 1.092,-1.186 1.673,-1.785 l -21.719904,-3.036 -0.1394,-0.009"
       style="fill:#29b690;fill-opacity:1;fill-rule:nonzero;stroke:none;stroke-width:0.1"
       id="path128" />
    <path
       d="m 99.979046,112.96661 c -0.491,0 -0.9199,0.362 -0.989,0.862 -0.0762,0.547 0.3046,1.053 0.8515,1.129 l 38.829804,5.426 c 0.524,-0.642 1.142,-1.231 1.865,-1.758 l -40.4174,-5.649 -0.139904,-0.01"
       style="fill:#29b690;fill-opacity:1;fill-rule:nonzero;stroke:none;stroke-width:0.1"
       id="path130" />
    <path
       d="m 162.04435,90.96461 c -3.75,0 -5.271,4.763 -4.68,9.526 0.591,4.763 3.293,9.527 7.99,9.527 0.636,0 1.308,-0.088 2.017,-0.274 11.265,-2.965 4.348,-18.38 -5.138,-18.776 -0.064,-0.002 -0.127,-0.003 -0.189,-0.003"
       style="fill:#56c5b0;fill-opacity:1;fill-rule:nonzero;stroke:none;stroke-width:0.1"
       id="path132" />
    <path
       d="m 149.17035,90.49961 c -2.565,0 -4.644,1.549 -4.644,3.459 0,1.909 2.079,3.458 4.644,3.458 2.565,0 4.645,-1.549 4.645,-3.458 0,-1.91 -2.08,-3.459 -4.645,-3.459"
       style="fill:#56c5b0;fill-opacity:1;fill-rule:nonzero;stroke:none;stroke-width:0.1"
       id="path134" />
    <path
       d="m 75.078646,191.24061 c -0.289,3.371 8.8938,12.056 19.17,10.277 10.276704,-1.778 16.798704,-6.127 33.003704,-0.791 16.206,5.336 35.179,15.811 36.957,8.498 1.78,-7.311 -27.075,-19.17 -51.384,-22.332 -24.308404,-3.162 -37.153704,-2.569 -37.746704,4.348"
       style="fill:#6bccb7;fill-opacity:1;fill-rule:nonzero;stroke:none;stroke-width:0.1"
       id="path136" />
    <path
       d="m 71.679046,131.49761 c 0,-10.239 7.518,-20.047 16.6301,-18.908 11.6074,1.451 15.035204,7.062 11.845704,9.339 -3.189504,2.279 -7.744904,2.735 -7.744904,2.735 0,0 12.756404,2.506 10.478404,9.795 -2.2772,7.29 -10.251104,3.417 -10.251104,3.417 0,0 12.757104,5.012 7.2903,11.39 -5.468,6.379 -28.2485,-0.227 -28.2485,-17.768"
       style="fill:#ffffff;fill-opacity:1;fill-rule:nonzero;stroke:none;stroke-width:0.1"
       id="path138" />
    <path
       d="m 98.143146,227.70161 v 0 l -0.4903,5.4 32.690504,5.29 1.39,-6.34 c -11.561,-1.96 -26.43,-3.62 -33.590204,-4.35"
       style="fill:#7fd3c5;fill-opacity:1;fill-rule:nonzero;stroke:none;stroke-width:0.1"
       id="path140" />
    <path
       d="m 132.19335,237.29161 c -1.58,-2.37 -26.481,-5.73 -32.610804,-6.52 -6.1203,-0.8 -8.0996,0.19 -8.8894,2.96 0,0 -0.7903,10.08 -0.5899,13.04 0.1895,2.97 1.5797,3.76 7.8993,4.15 l 0.2402,0.02 c 6.469604,0.44 21.969604,2.85 24.860604,3.34 5.729,0.99 6.719,0.79 7.899,-4.94 0.45,-2.16 0.95,-4.07 1.32,-5.73 0.611,-2.75 0.85,-4.84 -0.129,-6.32"
       style="fill:#206b8f;fill-opacity:1;fill-rule:nonzero;stroke:none;stroke-width:0.1"
       id="path142" />
    <path
       d="m 132.19335,237.29161 c -1.58,-2.37 -26.481,-5.73 -32.610804,-6.52 -6.1203,-0.8 -8.0996,0.19 -8.8894,2.96 0,0 -0.7903,10.08 -0.5899,13.04 0.1895,2.97 1.5797,3.76 7.8993,4.15 l 0.2402,0.02 c 1.1699,-5.23 7.390604,-12.19 34.079604,-7.33 0.611,-2.75 0.85,-4.84 -0.129,-6.32"
       style="fill:#134c67;fill-opacity:1;fill-rule:nonzero;stroke:none;stroke-width:0.1"
       id="path144" />
    <path
       d="m 333.99935,112.75661 c -0.519,-0.191 -1.093,0.075 -1.283,0.594 -0.235,0.642 -5.719,15.865 -1.733,28.847 0.163,0.53 0.722,0.824 1.25,0.663 0.528,-0.162 0.825,-0.722 0.663,-1.249 -3.791,-12.346 1.642,-27.421 1.697,-27.572 0.19,-0.52 -0.075,-1.093 -0.594,-1.283"
       style="fill:#ffffff;fill-opacity:1;fill-rule:nonzero;stroke:none;stroke-width:0.1"
       id="path146" />
    <path
       d="m 386.14835,114.56061 c -1.186,0 -87.353,8.893 -92.886,10.079 -5.534,1.186 -11.463,-5.138 -9.882,-5.929 1.581,-0.79 9.091,-5.929 22.135,-7.51 13.044,-1.581 87.55,-5.336 87.55,-5.336 l 0.593,6.917 -7.51,1.779"
       style="fill:#11a7b7;fill-opacity:1;fill-rule:nonzero;stroke:none;stroke-width:0.1"
       id="path148" />
    <path
       d="m 334.00235,112.75161 c -0.519,-0.19 -1.099,0.08 -1.29,0.6 -0.13,0.36 -1.88,5.23 -2.729,11.71 h 2.049 c 0.84,-6.26 2.531,-10.94 2.561,-11.02 0.189,-0.52 -0.07,-1.1 -0.591,-1.29"
       style="fill:#ffffff;fill-opacity:1;fill-rule:nonzero;stroke:none;stroke-width:0.1"
       id="path150" />
    <path
       d="m 402.94335,133.93161 c -0.39,-12.26 -7.51,-24.9 -7.51,-24.9 0,0 -2.761,-56.33 -4.54,-70.1601 -0.111,-0.85 -0.221,-1.6597 -0.351,-2.4301 -1.889,-11.8097 -5.599,-14.7296 -14.87,-14.1699 -9.88,0.5903 -63.829,1.1801 -80.43,5.5301 -16.609,4.35 -15.219,5.7301 -15.42,15.2199 -0.2,9.4801 3.561,75.6901 3.561,75.6901 0,0 7.1,-1.45 19.6,-3.28 7.059,-1.02 15.849,-2.17 26.049,-3.24 25.991,-2.73 63.241,-4.55 63.441,-2.77 0.199,1.78 -95.061,39.72 -97.63,40.51 -2.57,0.8 -3.16,5.34 5.529,16.21 8.7,10.87 17.2,18.38 27.08,16.4 9.88,-1.97 44.861,-12.45 60.47,-22.92 15.62,-10.48 15.421,-13.44 15.021,-25.69"
       style="fill:#57c8d9;fill-opacity:1;fill-rule:nonzero;stroke:none;stroke-width:0.1"
       id="path152" />
    <path
       d="m 347.80835,139.26361 c -2.565,-0.15 -10.475,22.531 -1.778,22.531 8.695,0 7.707,-11.859 7.707,-11.859 0,0 11.858,10.673 15.217,0.988 3.36,-9.683 -17.787,-11.461 -21.146,-11.66"
       style="fill:#7fd5e0;fill-opacity:1;fill-rule:nonzero;stroke:none;stroke-width:0.1"
       id="path154" />
    <path
       d="m 377.69135,22.20671 c -0.642,0 -1.314,0.0219 -2.019,0.0648 -9.88,0.5903 -63.829,1.1801 -80.43,5.5301 -14.53,3.8059 -15.285,5.3371 -15.381,12.0148 -0.013,0.9563 -0.013,2.0172 -0.039,3.2051 -0.005,0.2449 -0.007,0.5293 -0.007,0.8481 -0.001,12.014 3.568,74.842 3.568,74.842 0,0 7.1,-1.45 19.6,-3.28 -3.62,-23.8 -6.271,-72.6402 32.4,-75.73 28.279,-2.2602 45.449,-3.0301 55.159,-3.2602 -1.746,-10.9109 -5.047,-14.2347 -12.851,-14.2347"
       style="fill:#48c3d9;fill-opacity:1;fill-rule:nonzero;stroke:none;stroke-width:0.1"
       id="path156" />
    <path
       d="m 357.99235,75.72151 v -11.4398 c 0,-3.9 -1.189,-7.5199 -3.24,-10.5199 -3.369,-4.95 -9.05,-8.2 -15.489,-8.2 -8.17,0 -15.12,5.2296 -17.67,12.53 -0.681,1.9399 -1.051,4.02 -1.051,6.1899 v 11.4398 c 0,1.5403 1.25,2.7903 2.79,2.7903 h 31.87 c 1.54,0 2.79,-1.25 2.79,-2.7903"
       style="fill:#f89d88;fill-opacity:1;fill-rule:nonzero;stroke:none;stroke-width:0.1"
       id="path158" />
    <path
       d="m 354.75235,53.76181 c -3.369,-4.95 -9.05,-8.2 -15.489,-8.2 -8.17,0 -15.12,5.2296 -17.67,12.53 4.899,3.1899 19.819,12.92 33.159,-4.33"
       style="fill:#f2596c;fill-opacity:1;fill-rule:nonzero;stroke:none;stroke-width:0.1"
       id="path160" />
    <path
       d="m 324.86435,90.54161 c 0,-1.738 -1.409,-3.146 -3.146,-3.146 -1.737,0 -3.146,1.408 -3.146,3.146 0,1.737 1.409,3.145 3.146,3.145 1.737,0 3.146,-1.408 3.146,-3.145"
       style="fill:#213e58;fill-opacity:1;fill-rule:nonzero;stroke:none;stroke-width:0.1"
       id="path162" />
    <path
       d="m 362.30935,88.90161 c 0,-1.737 -1.408,-3.145 -3.146,-3.145 -1.737,0 -3.145,1.408 -3.145,3.145 0,1.737 1.408,3.146 3.145,3.146 1.738,0 3.146,-1.409 3.146,-3.146"
       style="fill:#213e58;fill-opacity:1;fill-rule:nonzero;stroke:none;stroke-width:0.1"
       id="path164" />
    <path
       d="m 380.07335,73.73171 c 0,-4.5289 -3.671,-8.2 -8.2,-8.2 -4.529,0 -8.2,3.6711 -8.2,8.2 0,4.5281 3.671,8.1989 8.2,8.1989 4.529,0 8.2,-3.6708 8.2,-8.1989"
       style="fill:#70d0e0;fill-opacity:1;fill-rule:nonzero;stroke:none;stroke-width:0.1"
       id="path166" />
    <path
       d="m 315.29235,78.65161 c 0,-4.5289 -3.671,-8.2 -8.199,-8.2 -4.529,0 -8.2,3.6711 -8.2,8.2 0,4.528 3.671,8.2 8.2,8.2 4.528,0 8.199,-3.672 8.199,-8.2"
       style="fill:#70d0e0;fill-opacity:1;fill-rule:nonzero;stroke:none;stroke-width:0.1"
       id="path168" />
  </g>
</svg>
