<?xml version="1.0" encoding="UTF-8" standalone="no"?>
<!-- Created with Inkscape (http://www.inkscape.org/) -->

<svg
   version="1.1"
   id="svg18"
   width="666.66669"
   height="666.66669"
   viewBox="0 0 666.66669 666.66669"
   sodipodi:docname="mini_logo.svg"
   inkscape:version="1.2 (1:1.2+202206011327+fc4e4096c5)"
   xmlns:inkscape="http://www.inkscape.org/namespaces/inkscape"
   xmlns:sodipodi="http://sodipodi.sourceforge.net/DTD/sodipodi-0.dtd"
   xmlns="http://www.w3.org/2000/svg"
   xmlns:svg="http://www.w3.org/2000/svg">
  <defs
     id="defs22" />
  <sodipodi:namedview
     id="namedview20"
     pagecolor="#ffffff"
     bordercolor="#000000"
     borderopacity="0.25"
     inkscape:showpageshadow="2"
     inkscape:pageopacity="0.0"
     inkscape:pagecheckerboard="0"
     inkscape:deskcolor="#d1d1d1"
     showgrid="false"
     inkscape:zoom="0.65312309"
     inkscape:cx="392.72842"
     inkscape:cy="349.85748"
     inkscape:window-width="1310"
     inkscape:window-height="704"
     inkscape:window-x="56"
     inkscape:window-y="27"
     inkscape:window-maximized="1"
     inkscape:current-layer="g26">
    <inkscape:page
       x="0"
       y="0"
       id="page24"
       width="666.66669"
       height="666.66669" />
  </sodipodi:namedview>
  <g
     id="g26"
     inkscape:groupmode="layer"
     inkscape:label="Page 1"
     transform="matrix(1.3333333,0,0,-1.3333333,0,666.66667)">
    <g
       id="g1159"
       transform="matrix(1.1906165,0,0,1.1906165,-63.304269,-16.790174)">
      <path
         d="m 408.36077,374.62396 c -4.029,-16.48 -8.059,-41.38 -25.269,-89.73 -8.09,-22.7 -15.771,-66.41 -21.641,-106.38 -5.26,-35.78 -16.34016,-124.730295 -17.69116,-136.790296 -6.80115,-21.478348 -24.91001,-22.935093 -35.13931,-11.973683 -4.33101,3.744752 -4.28407,3.596849 -6.72811,11.028273 0,0 13.58858,60.975706 14.45958,66.015706 4.07,23.38 16.089,92.5 22.419,128.66 7.691,43.95 22.34,54.57 26.371,75.81 0.5,2.61 1.129,6.03 1.86,10.01 5.21,28.39 15.359,85.58 15.359,85.58 0,0 11.721,13.19 24.17,7.69 12.45,-5.49 5.861,-23.44 1.83,-39.92"
         style="fill:#2fb4c5;fill-opacity:1;fill-rule:nonzero;stroke:none;stroke-width:0.1"
         id="path60"
         sodipodi:nodetypes="ccccccccccccc" />
      <path
         d="m 353.03777,115.14596 c -7.588,0.762 -20.78,2.121 -34.61,3.581 0.556,3.196 1.166,6.698 1.816,10.435 12.239,-4.985 24.215,-9.935 32.838,-13.646 -0.015,-0.124 -0.029,-0.246 -0.044,-0.37 m 5.931,45.974 c -8.063,4.84 -19.812,9.592 -30.827,13.41 3.868,22.21 7.812,44.833 10.629,60.924 7.691,43.95 22.34,54.57 26.371,75.81 0.5,2.61 1.129,6.03 1.86,10.01 l 4.189,0.46 c 0,0 4.101,-9.02 0.821,-20.09 -3.281,-11.07 -27.061,-70.11 -27.47,-96.349 -0.271,-17.491 10.019,-24.241 16.909,-26.781 -0.868,-5.907 -1.697,-11.73 -2.482,-17.394"
         style="fill:#239bb6;fill-opacity:1;fill-rule:nonzero;stroke:none;stroke-width:0.1"
         id="path62" />
      <path
         d="m 337.12277,418.89096 c -0.451,0.151 -4.06,1.804 -4.21,-1.053 -0.15,-2.857 2.405,-4.812 1.504,-5.564 -0.902,-0.752 -5.113,-0.451 -4.061,-3.458 1.053,-3.008 3.459,-9.173 2.256,-10.978 -1.203,-1.804 -6.617,-3.157 -6.467,-6.767 0.151,-3.608 4.061,-6.014 2.708,-7.518 -1.354,-1.504 -6.166,-1.053 -5.714,-2.256 0.451,-1.203 1.203,-2.105 1.203,-2.105 0,0 -4.362,-0.451 -2.858,-1.805 1.504,-1.353 3.159,-4.511 2.707,-4.812 -0.451,-0.301 -5.414,0.602 -5.564,-0.752 -0.15,-1.353 2.857,-5.263 2.857,-6.165 0,-0.902 -4.812,-1.504 -4.812,-3.459 0,-1.954 2.406,-3.759 2.256,-4.511 -0.151,-0.752 -5.263,-0.602 -5.714,-2.406 -0.451,-1.804 4.059,-4.661 3.759,-5.714 -0.301,-1.053 -3.759,-3.609 -4.06,-5.714 -0.301,-2.106 5.564,-7.669 4.661,-8.722 -0.902,-1.053 -6.165,2.857 -6.466,-0.602 -0.3,-3.458 4.662,-6.466 3.911,-7.819 -0.752,-1.354 -6.467,-3.76 -5.114,-6.015 1.354,-2.256 29.925,-13.985 29.925,-13.985 l 15.789,8.27 23.008,81.805 -22.557,13.533 -18.947,8.572"
         style="fill:#ffffff;fill-opacity:1;fill-rule:nonzero;stroke:none;stroke-width:0.1"
         id="path64" />
      <path
         d="m 404.64177,397.53796 c 0,0 -19.098,10.526 -21.353,11.429 -2.256,0.901 -48.722,11.728 -48.422,10.375 0.301,-1.353 38.797,-21.804 40.301,-21.804 1.504,0 31.278,-0.752 29.474,0"
         style="fill:#76d2dd;fill-opacity:1;fill-rule:nonzero;stroke:none;stroke-width:0.1"
         id="path66" />
      <path
         d="m 377.12277,398.89096 c 0,0 -5.263,-1.955 -4.661,-3.308 0.601,-1.354 2.405,-3.76 1.503,-5.264 -0.902,-1.503 -3.759,-1.352 -3.909,-3.759 -0.151,-2.406 2.255,-3.609 1.504,-4.962 -0.752,-1.353 -4.963,-0.602 -5.264,-3.609 -0.301,-3.008 2.707,-3.759 1.654,-5.564 -1.053,-1.805 -4.811,-1.504 -5.563,-3.609 -0.752,-2.106 2.555,-3.008 1.803,-5.564 -0.751,-2.556 -6.165,-2.106 -6.315,-5.714 -0.15,-3.609 2.857,-5.715 1.955,-7.068 -0.902,-1.353 -5.564,0.151 -5.714,-2.556 -0.15,-2.707 2.857,-7.218 2.105,-8.271 -0.752,-1.053 -5.263,-0.15 -6.767,-4.962 -1.504,-4.812 2.707,-8.421 1.955,-9.925 -0.752,-1.504 -7.218,-2.106 -6.467,-4.662 0.752,-2.556 4.813,-1.203 4.061,-3.458 -0.752,-2.256 -9.173,-9.925 -9.173,-9.925 0,0 34.135,0.601 37.744,-0.15 3.61,-0.752 4.963,0 5.715,3.608 0.751,3.609 19.698,66.917 20.901,73.835 1.204,6.917 4.061,12.03 0.452,13.534 -3.609,1.504 -27.519,1.353 -27.519,1.353"
         style="fill:#96dce4;fill-opacity:1;fill-rule:nonzero;stroke:none;stroke-width:0.1"
         id="path68" />
      <path
         d="m 333.88377,317.90596 -0.137,0.005 c -1.966,0.131 -3.05,2.834 -3.611,5.056 -0.938,-1.172 -2.258,-2.429 -3.712,-2.617 -0.681,-0.091 -1.7,0.016 -2.659,1.028 -3.164,3.34 -0.139,9.179 -0.009,9.426 0.259,0.488 0.863,0.673 1.349,0.417 0.49,-0.257 0.677,-0.861 0.42,-1.35 -0.025,-0.048 -2.487,-4.818 -0.309,-7.117 0.406,-0.429 0.724,-0.452 0.95,-0.421 1.296,0.167 2.993,2.546 3.612,3.673 0.207,0.377 0.631,0.58 1.058,0.502 0.424,-0.078 0.75,-0.418 0.809,-0.844 0.409,-2.911 1.495,-5.708 2.235,-5.758 h 0.014 c 0.637,0 2.071,2.879 2.855,6.294 0.124,0.538 0.662,0.87 1.198,0.751 0.538,-0.124 0.874,-0.66 0.751,-1.199 -0.546,-2.38 -2.095,-7.845 -4.814,-7.846"
         style="fill:#213e58;fill-opacity:1;fill-rule:nonzero;stroke:none;stroke-width:0.1"
         id="path70" />
      <path
         d="m 341.68677,331.85496 c 0,-1.512 -1.022,-2.738 -2.282,-2.738 -1.26,0 -2.282,1.226 -2.282,2.738 0,1.512 1.022,2.738 2.282,2.738 1.26,0 2.282,-1.226 2.282,-2.738"
         style="fill:#213e58;fill-opacity:1;fill-rule:nonzero;stroke:none;stroke-width:0.1"
         id="path72" />
      <path
         d="m 330.01377,337.31596 c 0,-1.512 -1.022,-2.738 -2.282,-2.738 -1.26,0 -2.282,1.226 -2.282,2.738 0,1.512 1.022,2.738 2.282,2.738 1.26,0 2.282,-1.226 2.282,-2.738"
         style="fill:#213e58;fill-opacity:1;fill-rule:nonzero;stroke:none;stroke-width:0.1"
         id="path74" />
      <path
         d="m 376.37277,312.82696 -0.044,0.002 c -22.889,1.971 -23.31,2.392 -23.469,2.551 -0.195,0.195 -0.195,0.512 0,0.707 0.166,0.165 0.416,0.191 0.61,0.076 1.095,-0.36 14.282,-1.592 22.945,-2.338 0.275,-0.023 0.479,-0.265 0.455,-0.541 -0.022,-0.26 -0.241,-0.457 -0.497,-0.457"
         style="fill:#2fb4c5;fill-opacity:1;fill-rule:nonzero;stroke:none;stroke-width:0.1"
         id="path76" />
      <path
         d="m 379.22777,324.10496 c -0.138,0 -0.264,0.057 -0.354,0.148 -1.294,0.534 -14.265,2.399 -22.268,3.466 -0.273,0.036 -0.465,0.288 -0.429,0.561 0.037,0.275 0.291,0.464 0.562,0.43 22.989,-3.065 22.989,-3.547 22.989,-4.105 0,-0.276 -0.223,-0.5 -0.5,-0.5"
         style="fill:#2fb4c5;fill-opacity:1;fill-rule:nonzero;stroke:none;stroke-width:0.1"
         id="path78" />
      <path
         d="m 382.08677,338.84196 -0.066,0.004 -20.902,2.707 c -0.273,0.035 -0.467,0.286 -0.432,0.56 0.037,0.274 0.283,0.462 0.561,0.432 l 20.902,-2.707 c 0.274,-0.035 0.467,-0.286 0.432,-0.56 -0.033,-0.252 -0.248,-0.436 -0.495,-0.436"
         style="fill:#2fb4c5;fill-opacity:1;fill-rule:nonzero;stroke:none;stroke-width:0.1"
         id="path80" />
      <path
         d="m 384.94377,347.56396 -0.082,0.007 -20.15,3.308 c -0.273,0.044 -0.457,0.302 -0.412,0.574 0.045,0.273 0.302,0.461 0.574,0.412 l 20.15,-3.308 c 0.273,-0.044 0.457,-0.302 0.412,-0.574 -0.04,-0.245 -0.251,-0.419 -0.492,-0.419"
         style="fill:#2fb4c5;fill-opacity:1;fill-rule:nonzero;stroke:none;stroke-width:0.1"
         id="path82" />
      <path
         d="m 389.90477,355.83396 -0.112,0.013 -22.857,5.263 c -0.268,0.062 -0.436,0.331 -0.375,0.6 0.063,0.269 0.329,0.436 0.6,0.375 l 22.857,-5.263 c 0.268,-0.062 0.436,-0.331 0.375,-0.6 -0.054,-0.231 -0.259,-0.388 -0.488,-0.388"
         style="fill:#2fb4c5;fill-opacity:1;fill-rule:nonzero;stroke:none;stroke-width:0.1"
         id="path84" />
      <path
         d="m 392.46177,365.90996 -0.12,0.014 -22.406,5.564 c -0.269,0.067 -0.432,0.338 -0.366,0.606 0.067,0.267 0.336,0.43 0.606,0.365 l 22.406,-5.564 c 0.269,-0.066 0.432,-0.338 0.365,-0.606 -0.056,-0.227 -0.261,-0.379 -0.485,-0.379"
         style="fill:#2fb4c5;fill-opacity:1;fill-rule:nonzero;stroke:none;stroke-width:0.1"
         id="path86" />
      <path
         d="m 396.22277,376.88696 -0.087,0.008 -21.504,3.759 c -0.273,0.048 -0.454,0.307 -0.406,0.579 0.046,0.273 0.31,0.45 0.578,0.406 l 21.504,-3.759 c 0.272,-0.048 0.454,-0.307 0.406,-0.579 -0.042,-0.243 -0.253,-0.414 -0.491,-0.414"
         style="fill:#2fb4c5;fill-opacity:1;fill-rule:nonzero;stroke:none;stroke-width:0.1"
         id="path88" />
      <path
         d="m 399.29177,387.20396 c -6.19,0.79 -15.311,2.05 -19.91,2.92 -1.141,0.21 -2,0.4 -2.471,0.56 -0.14,0.04 -0.25,0.08 -0.319,0.12 -0.141,0.16 -0.391,0.22 -0.59,0.11 -0.25,-0.12 -0.351,-0.42 -0.231,-0.67 0.04,-0.09 0.111,-0.23 0.89,-0.48 0.5,-0.15 1.29,-0.35 2.551,-0.61 3.05,-0.61 8.849,-1.53 19.949,-2.94 h 0.07 c 0.25,0 0.46,0.18 0.491,0.43 0.04,0.28 -0.161,0.53 -0.43,0.56"
         style="fill:#2fb4c5;fill-opacity:1;fill-rule:nonzero;stroke:none;stroke-width:0.1"
         id="path90" />
      <path
         d="m 331.70235,172.57161 c -17.45,-72.79 -23.389,-96.5501 -40.469,-119.5802 -17.09,-23.0199 -28.97,-25.6199 -31.201,-15.2199 -2.229,10.3903 7.561,42.4102 2.43,52.1601 -5.239,9.99 -7.26,3.17 -19.88,-0.17 -4.689,-1.244 -9.377,-0.643 -13.551,-0.043 -7.068,1.017 -12.664,2.034 -14.298,-5.907 -2.6,-12.6202 11.88,-49.3901 6.679,-53.4698 -1.559,-1.2203 -3.259,-2.1203 -5.12,-2.5601 -8.46,-2.0102 -20.239,5.3101 -37.59,33.0097 -21.16,33.7902 -47.899,102.8702 -55.7,158.9402 -7.8,56.08 13.74,82.81 41.96,86.53 22.03,2.9 35.011,-8.23 49.881,-11.83 4.189,-1.03 8.52,-1.45 13.25,-0.8 21.54,2.97 20.43,29.71 62.39,19.68 41.969,-10.02 58.679,-67.96 41.219,-140.74"
         style="fill:#ffffff;fill-opacity:1;fill-rule:nonzero;stroke:none;stroke-width:0.1"
         id="path92" />
      <path
         d="m 216.29235,27.78171 c -8.46,-2.0102 -20.239,5.3101 -37.59,33.0097 -21.16,33.7902 -47.899,102.8702 -55.7,158.9402 -7.8,56.08 13.74,82.81 41.96,86.53 22.03,2.9 35.011,-8.23 49.881,-11.83 -17.79,0.23 -56.369,13.46 -72.018,-22.207 -25.107,-57.219 10.507,-136.625 23.938,-151.804 12.239,-13.83 12.399,-48.3491 49.529,-92.6389"
         style="fill:#efefed;fill-opacity:1;fill-rule:nonzero;stroke:none;stroke-width:0.1"
         id="path94" />
      <path
         d="m 220.93135,94.74261 c -9.455,0 -17.428,1.544 -15.931,10.155 1.065,6.12 5.108,7.537 11.156,7.537 2.608,0 5.588,-0.263 8.863,-0.527 3.275,-0.263 6.844,-0.526 10.63,-0.526 2.917,0 5.961,0.156 9.098,0.588 5.776,0.797 11.707,2.092 15.767,2.092 4.475,0 6.68,-1.572 3.908,-7.115 -1.256,-2.512 -14.2,-11.721 -27.629,-11.721 -4.818,0 -10.572,-0.483 -15.862,-0.483"
         style="fill:#f7f7f6;fill-opacity:1;fill-rule:nonzero;stroke:none;stroke-width:0.1"
         id="path96" />
      <path
         d="m 300.74835,227.96261 c -8.681,0 -15.718,6.68 -15.718,14.921 0,8.241 7.037,14.921 15.718,14.921 8.681,0 15.719,-6.68 15.719,-14.921 0,-8.241 -7.038,-14.921 -15.719,-14.921"
         style="fill:#fcdae0;fill-opacity:1;fill-rule:nonzero;stroke:none;stroke-width:0.1"
         id="path98" />
      <path
         d="m 166.51735,214.60561 c -3.828,10.833 -9.249,14.797 -21.857,14.797 -1.508,0 -3.119,-0.057 -4.842,-0.166 2.098,5.897 7.974,10.143 14.894,10.143 8.682,0 15.719,-6.68 15.719,-14.921 0,-3.776 -1.477,-7.225 -3.914,-9.853"
         style="fill:#fcdae0;fill-opacity:1;fill-rule:nonzero;stroke:none;stroke-width:0.1"
         id="path100" />
      <path
         d="m 265.24235,253.90961 h -0.158 c -0.55,0.041 -0.964,0.521 -0.922,1.072 0.056,0.754 1.509,18.454 9.957,17.881 8.204,-0.562 11.945,-14.098 12.1,-14.674 0.144,-0.533 -0.172,-1.082 -0.705,-1.225 -0.531,-0.148 -1.082,0.172 -1.226,0.704 -0.035,0.127 -3.52,12.735 -10.304,13.2 -5.444,0.38 -7.486,-11.449 -7.828,-16.035 -0.037,-0.498 -0.432,-0.883 -0.914,-0.923"
         style="fill:#213e58;fill-opacity:1;fill-rule:nonzero;stroke:none;stroke-width:0.1"
         id="path102" />
      <path
         d="m 181.72935,247.05061 0.155,0.025 c 0.536,0.13 0.866,0.671 0.735,1.208 -0.178,0.735 -4.501,17.961 -12.742,16.017 -8.002,-1.893 -9.483,-15.858 -9.543,-16.452 -0.054,-0.549 0.347,-1.039 0.896,-1.094 0.549,-0.059 1.04,0.347 1.094,0.896 0.014,0.13 1.396,13.138 8.013,14.704 5.309,1.263 9.253,-10.075 10.339,-14.543 0.117,-0.485 0.57,-0.801 1.053,-0.761"
         style="fill:#213e58;fill-opacity:1;fill-rule:nonzero;stroke:none;stroke-width:0.1"
         id="path104" />
      <path
         d="m 269.81035,209.43261 c -7.42,-12.389 -22.739,-23.099 -41.4,-24.739 -22.35,-1.96 -35.46,8.079 -41.509,20.71 -2.551,5.33 -3.851,11.109 -4.051,16.649 -0.68,18.681 11.08,27.02 33.94,14.58 18,-9.799 25.741,23.69 48.75,6.38 11.23,-8.449 11.34,-21.779 4.27,-33.58"
         style="fill:#f89d88;fill-opacity:1;fill-rule:nonzero;stroke:none;stroke-width:0.1"
         id="path106" />
      <path
         d="m 277.43135,229.90261 c 0,-4.907 -4.386,-8.885 -9.795,-8.885 -5.41,0 -9.796,3.978 -9.796,8.885 0,4.907 4.386,8.884 9.796,8.884 5.409,0 9.795,-3.977 9.795,-8.884"
         style="fill:#87d6c7;fill-opacity:1;fill-rule:nonzero;stroke:none;stroke-width:0.1"
         id="path108" />
      <path
         d="m 281.48935,248.59261 c 0,-2.327 -1.734,-4.214 -3.873,-4.214 -2.138,0 -3.873,1.887 -3.873,4.214 0,2.328 1.735,4.215 3.873,4.215 2.139,0 3.873,-1.887 3.873,-4.215"
         style="fill:#87d6c7;fill-opacity:1;fill-rule:nonzero;stroke:none;stroke-width:0.1"
         id="path110" />
      <path
         d="m 210.64235,214.53561 c 0,0 5.239,9.568 20.729,9.568 15.492,0 23.009,-10.707 22.782,-16.857 -0.229,-6.152 -17.086,-16.63 -28.476,-9.34 -11.391,7.289 -15.035,16.629 -15.035,16.629"
         style="fill:#f2596c;fill-opacity:1;fill-rule:nonzero;stroke:none;stroke-width:0.1"
         id="path112" />
      <path
         d="m 269.81035,209.43261 c -7.42,-12.389 -22.739,-23.099 -41.4,-24.739 -22.35,-1.96 -35.46,8.079 -41.509,20.71 1.46,2.489 9.079,-5.381 12.119,-3.851 3.19,1.59 -7.29,15.031 5.011,18.22 12.309,3.191 17.089,-18.22 22.559,-13.89 5.46,4.321 -0.46,9.34 7.061,13.21 7.519,3.871 11.389,-17.309 17.539,-12.53 5.56,4.32 13.73,12.2 18.62,2.87"
         style="fill:#87d6c7;fill-opacity:1;fill-rule:nonzero;stroke:none;stroke-width:0.1"
         id="path114" />
    </g>
  </g>
</svg>
